<svg xmlns="http://www.w3.org/2000/svg" viewBox="0 0 256 256" role="img" aria-label="Probability logo">
  <rect width="256" height="256" fill="#ffffff"/>
  <clipPath id="circleClip">
    <circle cx="128" cy="128" r="114"/>
  </clipPath>
  <g clip-path="url(#circleClip)">
    <rect width="128" height="256" fill="#28aecd"/>
    <rect x="128" width="128" height="256" fill="#2c97ad"/>
    <path d="M18 170c29-2 48-13 64-34 19-25 27-56 46-56s27 31 46 56c16 21 35 32 64 34v56H18z" fill="#ffffff"/>
    <path d="M18 170c29-2 48-13 64-34 19-25 27-56 46-56s27 31 46 56c16 21 35 32 64 34" fill="none" stroke="#ffffff" stroke-width="6" stroke-linecap="round"/>
    <rect x="76" y="136" width="25" height="35" fill="#2c97ad"/>
    <rect x="105" y="114" width="46" height="57" fill="#ffffff"/>
    <rect x="128" y="114" width="23" height="57" fill="#d8d6d6"/>
    <rect x="178" y="142" width="25" height="29" fill="#28aecd"/>
    <rect y="170" width="256" height="86" fill="#2c97ad" opacity=".96"/>
    <rect width="128" y="170" height="86" fill="#28aecd" opacity=".96"/>
    <line x1="18" y1="170" x2="238" y2="170" stroke="#ffffff" stroke-width="3"/>
  </g>
  <circle cx="128" cy="128" r="114" fill="none" stroke="#eef3f6" stroke-width="3"/>
</svg>
